<?xml version="1.0" encoding="utf-8"?>
<!-- Generator: Adobe Illustrator 23.0.5, SVG Export Plug-In . SVG Version: 6.00 Build 0)  -->
<svg version="1.1" id="Capa_1" xmlns="http://www.w3.org/2000/svg" xmlns:xlink="http://www.w3.org/1999/xlink" x="0px" y="0px"
	 viewBox="0 0 1366 768" style="enable-background:new 0 0 1366 768;" xml:space="preserve">
<style type="text/css">
	.st0{fill:#EFEFEF;}
</style>
<g>
	<path d="M84.7,764.6c5.1-4,10.5-7.8,15.4-12.1c8.3-7.2,7.6-10.7-2.2-15c-3.9-1.7-7.7-3.5-14.5-6.7c9.6-3.5,16.1-5.9,22.6-8.3
		c0-1,0.1-2.1,0.1-3.1c-6.7-2.7-13.4-5.4-22.6-9.1c5.2-3.6,8.1-6.7,11.6-7.7c9.4-2.7,12.1-8.4,10.3-17.6
		c-7.3-37.5-1.4-72.4,19.4-104.9c7.8-12.1,13.6-25.6,20.6-39.1c-2.6-1.2-4.6-1.9-6.5-2.9c-7-3.7-7.6-8.2-0.8-12.4
		c6-3.7,12.6-6.5,19-9.4c6.2-2.7,8.9-6.5,5.9-13.1c-16.5-36.4-17.4-75-16.6-114c0.2-10.5-3-21.3-5.6-31.7
		c-11.2-45.2-24-90-33.7-135.5c-10.3-48.5-3.2-95.8,17.8-140.7c16.1-34.4,39.2-43.7,72.6-25.5c33.3,18.2,65.2,39,96.6,60.5
		c40.9,28,80.7,57.7,120.9,86.7c3,2.2,6,4.3,8.8,6.3c1.2-0.4,2.2-0.4,2.5-0.9c6.9-11.6,15.8-10.5,26.1-4.7
		c14.1,7.9,28.2,8.5,41.7-1.8c7.9-5.9,15.7-5,23.7,0.5c10.3,7.2,21,14,32.5,21.5c0.7-4.6,1.2-8.1,1.8-12.3c8.1,3.2,16,5.6,23.2,9.4
		c10.6,5.6,18.9,3.3,27.2-4.5c6-5.6,12.6-10.5,19.4-15.1c10-6.7,14.4-5.8,19.3,4.8c4,8.7,9.4,12,19.1,11.6c15.6-0.8,31.3,0.3,47-0.4
		c6.9-0.3,13.6-3.8,20.6-5.1c5-0.9,10.3-1.4,15.3-0.7c10.3,1.3,20.4,3.6,31.2,5.6c0.7-4.3,1.3-7.8,1.9-11.9c1.5-0.1,3.2-0.9,4.3-0.3
		c16.8,8.1,32.5,2.8,48.4-3.2c14.5-5.5,29.5-9.9,45.1-15c0.9,4.6,1.6,7.9,2.6,12.9c4.7-5.5,8.3-10.1,12.3-14.4
		c7-7.4,14.2-13.6,26-12.6c4.2,0.4,9.7-4.6,13.4-8.3c29-30,56.9-61.2,86.8-90.4c18.6-18.2,39.1-34.6,60.2-49.8
		c20.7-14.9,34.8-12.8,52.2,6.1c8.7,9.5,15.7,20.7,22.6,31.8c29.1,46.7,34.1,98.4,31.2,151.8c-2.5,44.3-14.4,86.7-26.3,129
		c-4.4,15.6-4.6,29.4,3.7,43.8c8.4,14.5,7.6,14.9-6.2,25.6c7.2,4.7,14.4,9,21.2,14c4.8,3.5,4.5,6.7,0.4,11.9
		c-4.5,5.7-7.9,13.4-8.7,20.5c-1.3,11.8-0.2,23.8,0,35.7c0.6,34.7,11.8,64.8,37.2,89.3c7.9,7.7,14.8,17,20.4,26.5
		c2.8,4.7,3.9,12.8,1.8,17.4c-3.1,6.6-2.6,11.4-0.3,17.6c4.4,12.2,7.1,25.1,12.1,37c2.3,5.6,7.9,10.3,13,14
		c6.5,4.8,10.4,8.8,5.4,17.3c-4.4,7.6-1.5,14.4,5.5,19.4c2.9,2.1,5.8,4.3,9.7,7.2c-8.2,7.9-22.4,13.8-4.8,27.3
		c-394.7,0-786.3,0-1177.9,0C86.7,766.9,85.7,765.8,84.7,764.6z M434.1,515.1c-40.8,11.3-68.9,54.4-62.9,95
		c7.1,47,44.7,80.3,90.4,79.8c39.2-0.4,79.2-30.9,83.6-64.4c-20.8,35.8-50.5,54-91.4,46.4c-35.7-6.6-58.6-29.5-65.1-65.2
		C381.1,565.7,399.4,536,434.1,515.1z M811.9,625.5c3.9,34.6,46.6,65.7,87.3,64.4c46.1-1.5,84.1-38.6,86.7-84.9
		c2.4-42.3-27.9-84.8-64.7-90.1c35.4,20.4,54.3,49.4,47.6,90.7c-5.6,34.6-30.9,60.4-65.6,66.4C862.1,679.1,832.4,661.3,811.9,625.5z
		 M900,556.2c0-1.7,0.1-3.4,0.1-5.1c-4.6-3.3-8.8-8.6-13.8-9.3c-7-1-12.8,4.8-11.4,11.8c0.9,4.4,6.9,10.6,11,11
		C890.4,564.7,895.3,559.2,900,556.2z M479.2,556.1c0-1.7,0-3.4,0.1-5.1c-4.6-3.2-9-8.5-13.9-9.3c-7-1-12.8,4.9-11.3,11.9
		c0.9,4.4,7,10.6,11.1,10.9C469.7,564.7,474.5,559.1,479.2,556.1z"/>
	<path class="st0" d="M434.1,515.1c-34.7,20.9-53,50.6-45.5,91.5c6.6,35.7,29.4,58.6,65.1,65.2c40.9,7.6,70.7-10.6,91.4-46.4
		c-4.3,33.5-44.4,64.1-83.6,64.4c-45.7,0.4-83.3-32.8-90.4-79.8C365.1,569.5,393.3,526.4,434.1,515.1z"/>
	<path class="st0" d="M811.9,625.5c20.5,35.9,50.3,53.6,91.2,46.5c34.7-6,59.9-31.8,65.6-66.4c6.7-41.3-12.2-70.4-47.6-90.7
		c36.8,5.3,67.1,47.8,64.7,90.1c-2.6,46.3-40.6,83.4-86.7,84.9C858.5,691.2,815.8,660,811.9,625.5z"/>
	<path class="st0" d="M900,556.2c-4.7,3-9.7,8.5-14.1,8.2c-4.1-0.3-10.1-6.5-11-11c-1.4-6.9,4.4-12.8,11.4-11.8
		c5,0.7,9.3,6,13.8,9.3C900.1,552.7,900,554.5,900,556.2z"/>
	<path class="st0" d="M479.2,556.1c-4.7,3-9.6,8.6-14.1,8.4c-4.1-0.3-10.1-6.4-11.1-10.9c-1.5-6.9,4.3-12.8,11.3-11.9
		c5,0.7,9.3,6,13.9,9.3C479.2,552.6,479.2,554.4,479.2,556.1z"/>
</g>
</svg>
