<?xml version="1.0" encoding="utf-8"?>
<!-- Generator: Adobe Illustrator 23.0.5, SVG Export Plug-In . SVG Version: 6.00 Build 0)  -->
<svg version="1.1" id="Capa_1" xmlns="http://www.w3.org/2000/svg" xmlns:xlink="http://www.w3.org/1999/xlink" x="0px" y="0px"
	 viewBox="0 0 500 500" style="enable-background:new 0 0 500 500;" xml:space="preserve">
<style type="text/css">
	.st0{fill:#494949;}
</style>
<g>
	<path class="st0" d="M19.5,419c0,0,54.6-58.2,54.6-58.2c9.6,0,19.1,0,28.7,0c19.3,0,38.7,0,58,0c8.6,0,17.3,0,25.9,0
		c15.2,0,32.2,1,43.6-10.8c8-8.3,12.5-19.9,12.7-31.4c0.1-11.1-4.5-22.1-12.6-29.8c-8.3-8-18.7-11-30-10.8
		c-17.3,0.3-34.6-0.2-51.9-0.3c-9.6-0.1-19.1,0.1-28.7-0.2c-11.2-0.3-21.8,0-32.5-3.6c-5.5-1.8-10.9-4.1-16-6.7
		c-13.8-7.1-26-17.3-34.9-30.1c-12.3-17.9-17.1-39.6-17-61.1c0-1.2,0-2.4,0.1-3.6c0.3-8.4,1.2-16.7,3-24.9c1.6-6.9,3.8-13.6,6.8-20
		c2.6-5.5,5.8-10.7,9.5-15.5c3.4-4.3,7.2-8.2,11.4-11.6c3.8-3.1,7.9-5.9,12.3-8.3c3.9-2.2,8-4,12.2-5.5c3.7-1.3,7.4-2.4,11.2-3.3
		c4-0.9,8.1-1.6,12.2-2c3.5-0.3,7.1-0.3,10.6-0.3c1.8,0,3.5,0,5.3,0c2.4,0,4.7,0,7.1,0c2.9,0,5.8,0,8.6,0c3.3,0,6.7,0,10,0
		c3.7,0,7.4,0,11.2,0c4,0,8.1,0,12.1,0c4.3,0,8.6,0,12.9,0c4.5,0,9,0,13.5,0c4.6,0,9.2,0,13.8,0c4.7,0,9.3,0,14,0c4.7,0,9.3,0,14,0
		c4.6,0,9.1,0,13.7,0c4.4,0,8.9,0,13.3,0c4.2,0,8.4,0,12.6,0c31.3,0,63.1-0.9,93.2,9.4c21.3,7.2,41.3,18.6,58.3,33.3
		c3,2.6,5.9,5.3,8.7,8.2c2.9,2.9,5.7,6,8.3,9.1c2.8,3.3,5.4,6.7,7.9,10.1c2.6,3.6,5,7.4,7.3,11.2c2.4,4,4.6,8.1,6.6,12.3
		c2.1,4.4,4.1,8.9,5.8,13.5c1.8,4.8,3.5,9.8,4.9,14.7c1.5,5.3,2.8,10.6,3.9,16c1.1,5.7,2.1,11.5,2.7,17.4c0.5,4.1,0.9,8.3,1.1,12.4
		c0.8,11.4,0.6,22.9-0.7,34.3c-1.2,10-3.3,19.9-6.4,29.4c-2.9,8.6-6.6,17-11.1,24.9c-4.3,7.4-9.2,14.3-14.8,20.7
		c-5.3,6.1-11.2,11.8-17.4,16.9c-6,5-12.4,9.5-19,13.5c-6.3,3.9-12.8,7.4-19.5,10.5c-6.2,2.9-12.6,5.5-19.1,7.8
		c-5.8,2.1-11.6,3.9-17.5,5.5c-12.5,3.4-25.7,6.1-38.8,6.7c-13.4,0.7-27,0-40.4,0c-4.6,0-9.1,0-13.7,0c0,0,40.7-20.6,49.2-57.8
		c0,0,98.5,3.9,111-111.2c0.1-0.5,0-1.1,0-1.7c0-1.6-0.1-3.1-0.2-4.7c-0.2-2.4-0.4-4.8-0.7-7.2c-0.4-3.1-0.9-6.1-1.5-9.2
		c-0.7-3.6-1.6-7.2-2.7-10.7c-1.2-4-2.6-7.9-4.2-11.7c-1.8-4.2-3.8-8.2-6-12.2c-2.4-4.2-5.1-8.3-8.1-12.1c-3.2-4.1-6.8-8-10.6-11.6
		c-4.2-3.9-8.6-7.4-13.4-10.6c-5.2-3.5-10.8-6.5-16.5-9c-6.4-2.9-13.1-5.2-19.9-7c-14.4-3.8-28.9-4.9-43.8-4.8
		c-3.8,0-7.5,0-11.3,0.1c-4.5,0-9,0.1-13.4,0.1c-5.1,0-10.1,0.1-15.2,0.1c-5.5,0-10.9,0.1-16.4,0.1c-5.7,0-11.5,0.1-17.2,0.1
		c-5.8,0-11.7,0.1-17.5,0.1c-5.8,0-11.6,0.1-17.4,0.1c-5.6,0-11.2,0.1-16.8,0.1c-5.2,0-10.5,0.1-15.7,0.1c-4.7,0-9.5,0.1-14.2,0.1
		c-4.1,0-8.1,0-12.2,0.1c-3.3,0-6.5,0-9.8,0.1c-3.8,0-7.8-0.1-11.6,0.7c-3.8,0.8-7.2,2.5-10.5,4.6c-4.7,2.9-8.9,6.7-12.2,11.2
		c-11.1,14.8-10.6,34.1-0.2,49.1c4.8,6.9,11.6,12.5,19.7,15.1c10.7,3.5,22.4,2.1,33.4,1.9c12.1-0.2,24.3-0.5,36.4-0.6
		c18.4-0.2,38.1-1,55.6,5.3c7.3,2.6,14.3,5.8,21,9.7c17.1,9.8,31.7,23.7,41.2,41c5.6,10.1,9.6,21.2,10.9,32.8
		c1.3,12-0.7,23.6-4.1,35c-5.5,18.2-15.4,34.9-28.8,48.4c-6.8,6.8-14.1,13.3-22.4,18.2c-4.3,2.6-9.1,4.4-13.9,5.8
		c-5,1.4-10.2,1.9-15.4,2.3c-21.5,1.6-43.2,0.5-64.8,0.3c-22.3-0.2-44.7-0.2-67-0.1c-8.2,0-16.4,0-24.6,0c-6.7,0-13.5,0-20.2,0
		c-4.6,0-9.3,0-13.9,0C23.4,419,21.5,419,19.5,419C19.6,419,19.6,419,19.5,419z"/>
</g>
</svg>
